# xmcd
#
# Track frame offsets: 
#        150
#        15103
#        30257
#        46850
#        62915
#        75835
#        88655
#        102640
#        113848
#        133873
#        147195
#        159392
#
# Disc length: 2341 seconds
#
# Revision: 0
# Processed by: cddbd v1.5.1PL2 Copyright (c) Steve Scherf et al.
# Submitted via: ExactAudioCopy v0.95b3
#
DISCID=8a09230c
DTITLE=The Bishops - A Legacy Of Hits
DYEAR=1900
DGENRE=Southern Gospel
TTITLE0=He's In The Midst
TTITLE1=I Need You More Today
TTITLE2=God's Amazing Grace
TTITLE3=Lazarus Come Forth
TTITLE4=That Sounds Like Someone I'd Like To Know
TTITLE5=Blind Bartimaeus
TTITLE6=He's Living Again
TTITLE7=Oh God, I Love You
TTITLE8=For Every Cross There Is A Crown
TTITLE9=Look To Him
TTITLE10=I'll Live Again
TTITLE11=He's My Hiding Place
EXTD=
EXTT0=
EXTT1=
EXTT2=
EXTT3=
EXTT4=
EXTT5=
EXTT6=
EXTT7=
EXTT8=
EXTT9=
EXTT10=
EXTT11=
PLAYORDER=
